<?xml version="1.0" encoding="utf-8"?>
<svg version="1.1" id="logo-thegoodguys" xmlns="http://www.w3.org/2000/svg" xmlns:xlink="http://www.w3.org/1999/xlink" viewBox="0 0 286 56" xml:space="preserve">
<style type="text/css">
    .st0{fill-rule:evenodd;clip-rule:evenodd;fill:#FFFFFF;}
    .st1{fill-rule:evenodd;clip-rule:evenodd;fill:#EC2127;}
</style>
<path class="st0" d="M256.8,16.9c-1.1,0-2.1-0.9-2.1-2c0-1.1,0.9-2,2.1-2h0c1.1,0,2,0.9,2,2C258.8,16,257.9,16.9,256.8,16.9z
     M256.8,13.3L256.8,13.3c-0.9,0-1.5,0.7-1.5,1.6c0,0.9,0.7,1.6,1.6,1.6c0.9,0,1.5-0.7,1.5-1.6C258.3,14,257.7,13.3,256.8,13.3z
     M257.3,15c0.2,0.1,0.3,0.2,0.4,0.5c0.1,0.3,0.1,0.4,0.1,0.5h-0.5c-0.1-0.1-0.1-0.2-0.2-0.5c0-0.2-0.2-0.3-0.4-0.3h-0.2v0.8H256v-2
    c0.2,0,0.4-0.1,0.8-0.1c0.4,0,0.5,0.1,0.7,0.2c0.1,0.1,0.2,0.2,0.2,0.4C257.7,14.7,257.5,14.9,257.3,15L257.3,15z M256.8,14.2
    c-0.1,0-0.2,0-0.3,0v0.6h0.2c0.3,0,0.5-0.1,0.5-0.3C257.2,14.3,257,14.2,256.8,14.2z M251.9,40c-0.8,0.9-1.8,1.6-3,2.1
    c-1.2,0.5-2.4,0.8-3.8,0.8c-2.1,0-4-0.4-6-1.2v-9.1c0.3,0.4,0.6,0.8,1,1.2c0.4,0.4,0.8,0.7,1.2,1c0.4,0.3,0.9,0.6,1.4,0.7
    c0.5,0.2,1,0.3,1.5,0.3c0.5,0,1.1-0.2,1.6-0.5c0.5-0.3,0.8-0.8,0.8-1.5c0-0.4-0.1-0.7-0.2-0.9c-0.1-0.3-0.3-0.5-0.5-0.7
    c-0.2-0.2-0.4-0.4-0.6-0.6c-0.2-0.2-0.5-0.4-0.7-0.5c-0.8-0.6-1.5-1.2-2.2-1.8c-0.7-0.6-1.3-1.2-1.8-1.9c-0.5-0.7-0.9-1.4-1.2-2.2
    c-0.3-0.8-0.4-1.8-0.4-2.9c0-0.9,0.1-1.8,0.4-2.9c0.3-1.1,0.8-2.2,1.5-3.1c0.7-1,1.6-1.8,2.8-2.5c1.1-0.7,2.6-1,4.2-1
    c1,0,1.9,0.1,2.9,0.4c1,0.3,1.9,0.6,2.7,1.1V23c-0.2-0.4-0.5-0.7-0.9-1.1c-0.4-0.4-0.7-0.7-1.1-1c-0.4-0.3-0.8-0.5-1.3-0.7
    c-0.5-0.2-0.9-0.3-1.4-0.3c-0.5,0-0.9,0.2-1.4,0.5c-0.5,0.3-0.7,0.8-0.7,1.3c0,0.3,0.1,0.6,0.2,0.9c0.2,0.3,0.3,0.5,0.5,0.8
    c0.2,0.2,0.4,0.4,0.7,0.6c0.3,0.2,0.5,0.4,0.7,0.6c0.8,0.6,1.6,1.2,2.2,1.7c0.7,0.6,1.2,1.2,1.7,1.8c0.5,0.7,0.8,1.4,1.1,2.2
    c0.2,0.8,0.4,1.8,0.4,2.9c0,1.4-0.2,2.6-0.7,3.8C253.4,38.1,252.7,39.1,251.9,40z M232,42.3h-8V29.9l-7.2-16.8h8.3l2.7,9h0.1l2.8-9
    h8.2L232,29.9V42.3z M215.4,36.5c-0.2,0.8-0.6,1.6-1,2.3c-0.4,0.7-1,1.4-1.8,2c-0.7,0.6-1.7,1.1-2.7,1.4c-1.1,0.4-2.4,0.5-3.9,0.5
    c-1.5,0-2.8-0.2-3.9-0.5c-1.1-0.4-2-0.8-2.7-1.4c-0.7-0.6-1.3-1.3-1.8-2c-0.4-0.7-0.8-1.5-1-2.3c-0.2-0.8-0.4-1.6-0.4-2.3
    c-0.1-0.7-0.1-1.4-0.1-2V13.1h8v18.4c0,0.4,0,0.8,0,1.3c0,0.5,0.1,0.9,0.2,1.3c0.1,0.4,0.3,0.8,0.6,1c0.3,0.3,0.7,0.4,1.2,0.4
    c0.6,0,1-0.1,1.3-0.4c0.3-0.3,0.5-0.6,0.6-1c0.1-0.4,0.2-0.9,0.2-1.3c0-0.5,0-0.9,0-1.2V13.1h8v19.1c0,0.6,0,1.3-0.1,2
    C215.8,35,215.6,35.8,215.4,36.5z M193.5,34.1c-0.3,1.2-0.7,2.3-1.1,3.4c-0.5,1.1-1.1,2-1.9,2.8c-0.8,0.8-1.7,1.4-2.9,1.9
    c-1.1,0.5-2.4,0.7-4,0.7c-2.2,0-4-0.4-5.4-1.3c-1.5-0.9-2.7-2-3.5-3.4c-0.9-1.4-1.5-3-1.9-4.8c-0.4-1.8-0.6-3.6-0.6-5.5
    c0-1.8,0.2-3.6,0.6-5.4c0.4-1.8,1-3.5,1.9-4.9c0.9-1.4,2.1-2.6,3.5-3.5c1.5-0.9,3.3-1.4,5.4-1.4c1.2,0,2.3,0.2,3.3,0.5
    c1,0.3,2,0.8,2.8,1.5c0.8,0.6,1.6,1.4,2.2,2.3c0.6,0.9,1.2,1.8,1.6,2.9l-7.7,2.8c0-0.3-0.1-0.6-0.2-0.9c-0.1-0.3-0.3-0.7-0.4-1
    c-0.2-0.3-0.4-0.5-0.7-0.8c-0.3-0.2-0.6-0.3-0.9-0.3c-0.6,0-1.1,0.2-1.5,0.5c-0.4,0.3-0.7,0.8-1,1.3c-0.2,0.5-0.4,1.1-0.5,1.8
    c-0.1,0.7-0.2,1.3-0.2,2c0,0.7-0.1,1.3-0.1,1.9c0,0.6,0,1,0,1.4c0,0.5,0.1,1.2,0.1,2c0,0.8,0.1,1.6,0.3,2.4c0.2,0.8,0.5,1.4,0.9,2
    c0.4,0.6,1,0.8,1.8,0.8c0.5,0,1-0.1,1.3-0.4c0.4-0.3,0.6-0.6,0.9-1c0.2-0.4,0.4-0.9,0.4-1.4c0.1-0.5,0.1-0.9,0.1-1.4h-2.9v-6.2h11.1
    l0,1.2c0,1.2-0.1,2.4-0.2,3.7C194,31.6,193.8,32.9,193.5,34.1z M158.1,37.4c-0.7,1.1-1.5,2-2.5,2.6c-0.9,0.7-1.9,1.2-2.9,1.5
    c-1,0.3-2,0.6-2.9,0.7c-1,0.1-1.9,0.2-2.7,0.2h-6.9V13.1h6.4c2.3,0,4.3,0.3,6,1c1.7,0.7,3.2,1.7,4.4,2.9c1.2,1.3,2.1,2.8,2.7,4.6
    c0.6,1.8,0.9,3.8,0.9,6c0,2.2-0.2,4.2-0.7,5.8C159.4,35,158.9,36.3,158.1,37.4z M152.3,25.5c-0.1-0.9-0.3-1.7-0.6-2.5
    c-0.3-0.7-0.7-1.4-1.3-1.9c-0.6-0.5-1.3-0.7-2.2-0.7v14.9c0.9,0,1.6-0.3,2.2-0.8c0.6-0.5,1-1.1,1.3-1.9c0.3-0.7,0.5-1.5,0.6-2.4
    c0.1-0.8,0.2-1.6,0.2-2.3C152.4,27.2,152.4,26.3,152.3,25.5z M135.4,38c-0.9,1.4-2.1,2.6-3.5,3.5c-1.4,0.9-3.1,1.4-5.2,1.4
    c-2,0-3.7-0.5-5.2-1.4c-1.4-0.9-2.6-2.1-3.5-3.5c-0.9-1.4-1.6-3.1-2-4.9c-0.4-1.8-0.6-3.6-0.6-5.4c0-1.8,0.2-3.6,0.6-5.4
    c0.4-1.8,1.1-3.4,2-4.9c0.9-1.4,2.1-2.6,3.5-3.5c1.4-0.9,3.1-1.4,5.2-1.4c2,0,3.7,0.5,5.2,1.4c1.4,0.9,2.6,2.1,3.5,3.5
    c0.9,1.4,1.6,3.1,2,4.9c0.4,1.8,0.6,3.6,0.6,5.4c0,1.8-0.2,3.6-0.6,5.4C136.9,34.9,136.3,36.5,135.4,38z M129.8,26.5
    c0-0.5-0.1-1-0.1-1.6c-0.1-0.6-0.2-1.1-0.3-1.7c-0.1-0.6-0.3-1.1-0.5-1.6c-0.2-0.5-0.5-0.9-0.9-1.2c-0.4-0.3-0.8-0.4-1.3-0.4
    c-0.5,0-0.9,0.1-1.3,0.4c-0.4,0.3-0.6,0.7-0.9,1.2c-0.2,0.5-0.4,1-0.5,1.6c-0.1,0.6-0.2,1.2-0.3,1.7c-0.1,0.6-0.1,1.1-0.1,1.6
    c0,0.5,0,0.9,0,1.2c0,0.3,0,0.7,0,1.2c0,0.5,0.1,1,0.1,1.6c0.1,0.6,0.2,1.1,0.3,1.7c0.1,0.6,0.3,1.1,0.5,1.6
    c0.2,0.5,0.5,0.9,0.9,1.2c0.4,0.3,0.8,0.4,1.3,0.4c0.5,0,0.9-0.1,1.3-0.4c0.4-0.3,0.6-0.7,0.9-1.2c0.2-0.5,0.4-1,0.5-1.6
    c0.1-0.6,0.2-1.2,0.3-1.7c0.1-0.6,0.1-1.1,0.1-1.6c0-0.5,0-0.9,0-1.2C129.9,27.4,129.9,27,129.8,26.5z M111.6,38
    c-0.9,1.4-2.1,2.6-3.5,3.5c-1.4,0.9-3.1,1.4-5.2,1.4c-2,0-3.7-0.5-5.2-1.4c-1.4-0.9-2.6-2.1-3.5-3.5c-0.9-1.4-1.6-3.1-2-4.9
    c-0.4-1.8-0.6-3.6-0.6-5.4c0-1.8,0.2-3.6,0.6-5.4c0.4-1.8,1.1-3.4,2-4.9c0.9-1.4,2.1-2.6,3.5-3.5c1.4-0.9,3.1-1.4,5.2-1.4
    c2,0,3.7,0.5,5.2,1.4c1.4,0.9,2.6,2.1,3.5,3.5c0.9,1.4,1.6,3.1,2,4.9c0.4,1.8,0.6,3.6,0.6,5.4c0,1.8-0.2,3.6-0.6,5.4
    C113.1,34.9,112.5,36.5,111.6,38z M106,26.5c0-0.5-0.1-1-0.1-1.6c-0.1-0.6-0.2-1.1-0.3-1.7c-0.1-0.6-0.3-1.1-0.5-1.6
    c-0.2-0.5-0.5-0.9-0.9-1.2c-0.4-0.3-0.8-0.4-1.3-0.4c-0.5,0-0.9,0.1-1.3,0.4c-0.4,0.3-0.6,0.7-0.9,1.2c-0.2,0.5-0.4,1-0.5,1.6
    c-0.1,0.6-0.2,1.2-0.3,1.7c-0.1,0.6-0.1,1.1-0.1,1.6c0,0.5,0,0.9,0,1.2c0,0.3,0,0.7,0,1.2c0,0.5,0.1,1,0.1,1.6
    c0.1,0.6,0.2,1.1,0.3,1.7c0.1,0.6,0.3,1.1,0.5,1.6c0.2,0.5,0.5,0.9,0.9,1.2c0.4,0.3,0.8,0.4,1.3,0.4c0.5,0,0.9-0.1,1.3-0.4
    c0.4-0.3,0.6-0.7,0.9-1.2c0.2-0.5,0.4-1,0.5-1.6c0.1-0.6,0.2-1.2,0.3-1.7c0.1-0.6,0.1-1.1,0.1-1.6c0-0.5,0-0.9,0-1.2
    C106.1,27.4,106,27,106,26.5z M89.9,34.1c-0.3,1.2-0.7,2.3-1.1,3.4c-0.5,1.1-1.1,2-1.9,2.8c-0.8,0.8-1.7,1.4-2.9,1.9
    c-1.1,0.5-2.4,0.7-4,0.7c-2.2,0-4-0.4-5.4-1.3c-1.5-0.9-2.7-2-3.5-3.4c-0.9-1.4-1.5-3-1.9-4.8c-0.4-1.8-0.6-3.6-0.6-5.5
    c0-1.8,0.2-3.6,0.6-5.4c0.4-1.8,1-3.5,1.9-4.9c0.9-1.4,2.1-2.6,3.5-3.5c1.5-0.9,3.3-1.4,5.4-1.4c1.2,0,2.3,0.2,3.3,0.5
    c1,0.3,2,0.8,2.8,1.5c0.8,0.6,1.6,1.4,2.2,2.3c0.6,0.9,1.2,1.8,1.6,2.9l-7.7,2.8c0-0.3-0.1-0.6-0.2-0.9c-0.1-0.3-0.3-0.7-0.4-1
    c-0.2-0.3-0.4-0.5-0.7-0.8c-0.3-0.2-0.6-0.3-0.9-0.3c-0.6,0-1.1,0.2-1.5,0.5c-0.4,0.3-0.7,0.8-1,1.3c-0.2,0.5-0.4,1.1-0.5,1.8
    c-0.1,0.7-0.2,1.3-0.2,2c0,0.7-0.1,1.3-0.1,1.9c0,0.6,0,1,0,1.4c0,0.5,0.1,1.2,0.1,2c0,0.8,0.1,1.6,0.3,2.4c0.2,0.8,0.5,1.4,0.9,2
    c0.4,0.6,1,0.8,1.8,0.8c0.5,0,1-0.1,1.3-0.4c0.4-0.3,0.6-0.6,0.9-1c0.2-0.4,0.4-0.9,0.4-1.4c0.1-0.5,0.1-0.9,0.1-1.4h-2.9v-6.2h11.1
    l0,1.2c0,1.2-0.1,2.4-0.2,3.7C90.4,31.6,90.2,32.9,89.9,34.1z M41.4,13.1h14.8V20h-6.8v4.1h6.1V31h-6.1v4.5h6.8v6.9H41.4V13.1z
     M30.2,30.5h-3.8v11.9h-8V13.1h8v10.5h3.8V13.1h8v29.2h-8V30.5z M12.3,42.3h-8V20.2H0v-7.1h16.9v7.1h-4.6V42.3z"/>
<path class="st1" d="M276,0h10v56h-10V0z"/>
</svg>
