<?xml version="1.0" encoding="utf-8"?>
<!-- Generator: Adobe Illustrator 17.0.0, SVG Export Plug-In . SVG Version: 6.00 Build 0)  -->
<!DOCTYPE svg PUBLIC "-//W3C//DTD SVG 1.1//EN" "http://www.w3.org/Graphics/SVG/1.1/DTD/svg11.dtd">
<svg version="1.1" id="Layer_1" xmlns="http://www.w3.org/2000/svg" xmlns:xlink="http://www.w3.org/1999/xlink" x="0px" y="0px"
	 width="398.149px" height="75.521px" viewBox="0 0 398.149 75.521" enable-background="new 0 0 398.149 75.521"
	 xml:space="preserve">
<rect x="0" y="0.07" fill="#1967AF" width="383.14" height="75.451"/>
<g>
	<path fill="#FFFFFF" d="M26.478,57.847V28.061h-6.607V17.926h24.412v10.135h-6.607v29.786H26.478z"/>
	<path fill="#FFFFFF" d="M45.678,17.926H56.82v14.333h4.759V17.926h11.142v39.921H61.58V42.226H56.82v15.621H45.678V17.926z"/>
	<path fill="#FFFFFF" d="M75.067,17.926h19.82v9.686h-8.622v5.096h7.782v9.35h-7.782v5.487h8.622v10.303h-19.82V17.926z"/>
	<path fill="#FFFFFF" d="M139.114,38.139c0,13.829-4.423,20.492-13.997,20.492c-9.35,0-14.95-7.334-14.95-20.716
		c0-13.437,5.543-20.772,15.173-20.772c6.943,0,11.086,3.079,13.27,9.741l-9.686,3.304c-0.84-2.688-1.903-3.919-3.751-3.919
		c-3.08,0-3.752,3.583-3.752,11.141c0,7.559,0.672,11.031,3.696,11.031c2.071,0,3.079-1.736,3.079-5.207c0-0.168,0-0.393,0-0.56
		h-3.303v-8.118h14.11C139.058,35.786,139.114,36.963,139.114,38.139z"/>
	<path fill="#FFFFFF" d="M155.962,17.143c9.35,0,14.893,7.39,14.893,20.772c0,13.382-5.543,20.716-14.893,20.716
		c-9.35,0-14.95-7.334-14.95-20.716C141.012,24.533,146.612,17.143,155.962,17.143z M155.962,48.441
		c3.023,0,3.639-3.36,3.639-10.807c0-7.39-0.616-10.806-3.639-10.806c-3.024,0-3.696,3.416-3.696,10.806
		C152.266,45.082,152.938,48.441,155.962,48.441z"/>
	<path fill="#FFFFFF" d="M187.814,17.143c9.35,0,14.893,7.39,14.893,20.772c0,13.382-5.543,20.716-14.893,20.716
		s-14.95-7.334-14.95-20.716C172.865,24.533,178.464,17.143,187.814,17.143z M187.814,48.441c3.023,0,3.639-3.36,3.639-10.807
		c0-7.39-0.616-10.806-3.639-10.806c-3.023,0-3.696,3.416-3.696,10.806C184.119,45.082,184.791,48.441,187.814,48.441z"/>
	<path fill="#FFFFFF" d="M213.228,17.926c6.494,0,10.862,0.616,14.837,4.872c2.855,3.135,4.423,8.23,4.423,15.117
		c0,13.213-5.711,19.932-16.797,19.932h-10.75V17.926H213.228z M216.083,47.769c0.168,0,0.336,0,0.504,0
		c3.695,0,4.647-3.136,4.647-10.078c0-6.999-0.896-10.191-4.759-10.191c-0.112,0-0.28,0-0.392,0V47.769z"/>
	<path fill="#FFFFFF" d="M275.929,38.139c0,13.829-4.423,20.492-13.997,20.492c-9.35,0-14.95-7.334-14.95-20.716
		c0-13.437,5.543-20.772,15.173-20.772c6.943,0,11.086,3.079,13.27,9.741l-9.687,3.304c-0.84-2.688-1.903-3.919-3.751-3.919
		c-3.08,0-3.752,3.583-3.752,11.141c0,7.559,0.672,11.031,3.696,11.031c2.071,0,3.079-1.736,3.079-5.207c0-0.168,0-0.393,0-0.56
		h-3.303v-8.118h14.11C275.873,35.786,275.929,36.963,275.929,38.139z"/>
	<path fill="#FFFFFF" d="M277.715,17.926h11.142v26.707c0,2.296,0.784,3.416,2.576,3.416c1.792,0,2.576-1.119,2.576-3.416V17.926
		h11.198v25.644c0,10.359-4.2,15.061-13.774,15.061c-9.574,0-13.718-4.703-13.718-15.061V17.926z"/>
	<path fill="#FFFFFF" d="M317.24,17.926l3.024,12.262l3.023-12.262h11.758l-9.239,23.908v16.013H314.72V41.834l-9.238-23.908H317.24
		z"/>
	<path fill="#FFFFFF" d="M341.031,48.441c1.849,0,3.08-1.232,3.08-2.801c0-1.455-1.231-2.574-3.023-4.254
		c-4.704-4.367-7.84-7.447-7.84-12.653c0-6.664,4.983-11.59,12.263-11.59c2.798,0,5.822,0.783,9.013,2.295v10.359
		c-2.686-2.128-5.038-3.192-6.943-3.192c-1.735,0-2.798,1.008-2.798,2.408c0,1.624,1.343,2.576,3.191,4.031
		c5.04,4.032,7.951,6.775,7.951,12.653c0,7.783-5.319,12.934-13.493,12.934c-3.192,0-6.159-1.008-9.294-3.023V44.577
		C336.44,47.209,339.127,48.441,341.031,48.441z"/>
	<path fill="#FFFFFF" d="M362.325,19.783c0.681,0.691,1.038,1.607,1.038,2.593c0,1.028-0.386,1.953-1.1,2.635
		c-0.732,0.702-1.657,1.078-2.614,1.078c-0.996,0-1.922-0.396-2.634-1.129c-0.692-0.712-1.068-1.618-1.068-2.584
		c0-0.986,0.398-1.942,1.129-2.665c0.692-0.681,1.577-1.048,2.573-1.048C360.677,18.664,361.611,19.05,362.325,19.783z
		 M357.544,20.19c-0.602,0.6-0.916,1.374-0.916,2.187c0,0.794,0.295,1.527,0.865,2.106c0.58,0.6,1.343,0.926,2.156,0.926
		c0.794,0,1.557-0.304,2.147-0.875c0.58-0.559,0.895-1.322,0.895-2.157c0-0.813-0.294-1.556-0.854-2.126
		c-0.59-0.6-1.343-0.916-2.178-0.916C358.836,19.335,358.112,19.63,357.544,20.19z M359.72,20.262c1.17,0,1.759,0.416,1.759,1.179
		c0,0.529-0.315,0.936-0.865,1.1l0.906,1.789h-1.231l-0.763-1.616h-0.325v1.616h-1.118v-4.068H359.72z M359.201,22.051h0.398
		c0.487,0,0.732-0.173,0.732-0.528c0-0.398-0.255-0.56-0.794-0.56h-0.336V22.051z"/>
</g>
<g>
	<rect x="385.415" y="0" fill="#EE4532" width="12.735" height="75.521"/>
</g>
<g>
</g>
<g>
</g>
<g>
</g>
<g>
</g>
<g>
</g>
<g>
</g>
<g>
</g>
</svg>
