<?xml version="1.0" encoding="utf-8"?>
<!-- Generator: Adobe Illustrator 18.1.0, SVG Export Plug-In . SVG Version: 6.00 Build 0)  -->
<svg id="samsung" xmlns="http://www.w3.org/2000/svg" viewBox="-300 742 600 100">
<g transform="translate(-479.16085,-202.95343)">
	<path d="M740.7,954.3c-29.6,0-26.2,22.5-26.2,22.5v41.2c0.6,21.3,27,19.1,27,19.1c13.7,0,20.7-9.2,20.7-9.2
		c0.8-0.6,3.1-3.9,3.1-3.9c2.1-3,2.2-8.1,2.2-8.1v-24.1h-26.3v11.6h5.7v12.1c0,5.9-5.3,6.3-5.3,6.3c-6.2,0-5.9-5.9-5.9-5.9v-42.5
		c0-4.4,5.4-4.6,5.4-4.6c5.3,0,5.3,5.3,5.3,5.3v6.5h20.5c0.6-12.7-1.8-15.6-1.8-15.6C759.9,953.7,740.7,954.3,740.7,954.3z
		 M217.6,954.6c-5.9,0.1-18.3,1.4-22.7,9.6c0,0-2.2,2.6-2.2,11v6.1c0,0-0.4,7.1,3.2,11.6c0,0,2.1,3,7.1,6.3c0,0,10.2,5.4,16.3,8.5
		c0,0,6.1,3.5,5.3,9.2c0,0-0.5,5.7-6.5,5.4c0,0-5.3-0.3-5.3-5.9v-6.5h-21.9v9.6c0,0-0.5,18.2,27.4,18.2c0,0,26.7,0.6,28-18.7v-7.9
		c0,0,0.9-11.9-9.6-18.1c0,0-5.6-3.5-8.9-4.9c0,0-10.7-4.9-12.8-7.4c0,0-4-3.7-1.7-8.3c0,0,1.2-3.1,5.4-3.1c0,0,5.7,0.4,5.7,5v6.5
		h20.3v-9.7c0,0,1.7-15.9-23.9-16.7C220.9,954.6,219.7,954.4,217.6,954.6z M485.3,954.6c-5.9,0.1-18.3,1.4-22.7,9.6
		c0,0-2.2,2.6-2.2,11v6.1c0,0-0.4,7.1,3.2,11.6c0,0,2.1,3,7.1,6.3c0,0,10.2,5.4,16.3,8.5c0,0,6.1,3.5,5.3,9.2c0,0-0.4,5.7-6.3,5.4
		c0,0-5.4-0.3-5.4-5.9v-6.5h-21.7v9.6c0,0-0.8,18.2,27.2,18.2c0,0,26.7,0.6,28-18.7v-7.9c0,0,1-11.9-9.3-18.1c0,0-5.7-3.5-9.2-4.9
		c0,0-10.5-4.9-12.5-7.4c0,0-4.3-3.7-1.8-8.3c0,0,1.2-3.1,5.4-3.1c0,0,5.7,0.4,5.7,5v6.5h20.3v-9.7c0,0,1.7-15.9-23.9-16.7
		C488.7,954.6,487.4,954.4,485.3,954.6z M538.1,957v58.2c0,0-2.3,21.9,28.8,21.9c0,0,27,0.4,27-20.9V957h-21.7v58.5
		c0,0,0.5,6.5-5.4,6.5c0,0-6.3,0.3-6.3-6.3l-0.3-58.6L538.1,957L538.1,957z M279.7,957.2l-13.6,77.7h21.9l7.9-60.3h1.8l7.9,60.3
		h21.7L314,957.2H279.7z M350.8,957.4l-1.7,77.5h20.3l0.3-58.5h1.7l10.6,58.5h21.3l10.6-58.5h1.4l0.4,58.5h20.5l-2.2-77.5h-34
		l-6.7,42.5h-1.7l-6.5-42.5H350.8L350.8,957.4z M621.8,957.4v77.5h20.1l-1.2-47.5h1l21.6,47.5h24.1v-77.5H667l1.4,47.1h-0.8
		l-20.9-47.1H621.8z"/>
</g>
</svg>
