<svg id="panasonic" xmlns="http://www.w3.org/2000/svg" viewBox="-300 742 600 100">
<polygon fill-opacity="0" points="-306,720.1 306,720.1 306,864.9 -306,864.9 "/>
<path d="M-138.2,774.9h20.6l0.9,6.8c1.6-5.4,12-9.3,18.4-9.3c14.7,0,20.6,9.1,20.6,25v34.2h-22.9V801c0-6.1-1.1-10.7-7.3-10.7
	c-5.7,0-8.6,6.1-8.6,10.4v30.8h-21.8V774.9L-138.2,774.9z"/>
<path d="M-271.8,831.9v-80.3h38.3c22.9,0,33.3,11.1,33.3,27.2c0,17.2-9.5,29-33.3,29h-12.9v24H-271.8L-271.8,831.9z M-236.2,788.3
	c6.1,0,12.7-1.4,12.7-8.4c0-7.3-7-8.8-12.7-8.8h-10.2v17.2L-236.2,788.3L-236.2,788.3z"/>
<path d="M114,774.9h20.9l0.7,6.8c1.8-5.4,12.2-9.3,18.6-9.3c14.5,0,20.6,9.1,20.6,25v34.5h-22.9V801c0-6.1-1.4-10.7-7.5-10.7
	c-5.4,0-8.4,6.1-8.4,10.4v31.1h-22L114,774.9L114,774.9z"/>
<path d="M8.8,811.4c0,2.3,1.1,5.7,2.5,6.8c1.6,1.1,3.6,2.3,6.1,2.3c4.1,0,7.3-1.1,7.3-5c0.2-9.5-34.5-1.1-34.5-23.8
	c0-15.9,12.2-19.5,25-19.5c12.7,0,30.2,2.5,29.5,19.7H25.3c0-1.6-0.7-2.7-1.6-4.1c-1.4-1.6-2.9-2.3-5.9-2.5
	c-3.9-0.2-7.5,0.5-7.5,3.4c0.2,8.9,35.8,3,35.8,23.8c0,14.5-10.2,21.1-29.9,21.1c-12.5-0.2-28.1-6.6-28.1-22.2L8.8,811.4L8.8,811.4z
	"/>
<path d="M243.5,796.9c0-1.4,0-3.2-1.8-5.4c-0.9-1.1-3-3.6-6.1-3.6c-8.6,0-10.9,8.4-10.9,15.2c0,7.9,3.6,14.5,10.4,14.5
	c5.9,0,8.8-5.4,8.8-10h20c0.5,11.8-7.7,25.9-29.7,25.9c-17.9,0-30.6-12.5-30.6-30.6c0-22,16.3-30.4,30.4-30.4
	c19.1,0,29.9,11.6,29.7,24.5L243.5,796.9L243.5,796.9z"/>
<path d="M-162.5,831.9l-2.3-4.8c-4.3,3.6-8.8,5.7-16.1,5.7c-7-0.2-20.9-1.1-20.9-16.3c0-24.9,37.2-13.6,37.2-25.9
	c0-4.1-4.5-3.9-7-3.9c-4.5,0-7.5,0.9-8.2,7.7h-19.1c0-11.8,3.6-21.8,28.6-21.8c24.3,0,26.8,12.7,26.8,25.2v25.9c0,3.4,0.2,5,2.5,7.5
	v0.5L-162.5,831.9L-162.5,831.9z M-164.3,805.8c-7.7,3.6-17.5,3.4-17.7,9.1c0,3.6,2,5.4,6.6,5.4
	C-167.9,820.3-163.9,812.6-164.3,805.8L-164.3,805.8z M-34.6,831.9l-2.3-4.8c-4.3,3.6-9.1,5.7-16.1,5.7c-7.3-0.2-21.1-1.1-21.1-16.3
	c0-24.9,37.2-13.6,37.4-25.9c0-4.1-4.8-3.9-7-3.9c-4.8,0-7.5,0.9-8.2,7.7h-19.1c0-11.8,3.4-21.8,28.6-21.8c24,0,26.5,12.7,26.5,25.2
	v25.9c0,3.4,0.2,5,2.5,7.5v0.5L-34.6,831.9L-34.6,831.9z M-36.4,805.8c-7.7,3.6-17.7,3.4-17.7,9.1c0,3.6,1.8,5.4,6.6,5.4
	C-40.2,820.3-35.9,812.6-36.4,805.8L-36.4,805.8z"/>
<path d="M200,831.9v-56.9h-21.1v56.9L200,831.9L200,831.9z M178.9,767.7H200v-16.3h-21.1V767.7L178.9,767.7z"/>
<path d="M80,772.9c18.8,0,30.4,13.2,30.4,30.4c0,17.5-11.6,30.4-30.4,30.4c-18.8,0-30.6-12.9-30.6-30.4
	C49.4,786,61.1,772.9,80,772.9L80,772.9z M70,803.3c0,7,2.3,15.7,10,15.9c7.7,0,9.8-8.8,9.8-15.9c0-6.8-2-15.7-9.8-15.7
	C72.3,787.6,70.2,796.5,70,803.3L70,803.3z"/>
</svg>
